<?xml version="1.0" encoding="UTF-8" standalone="no"?>
<!DOCTYPE svg PUBLIC "-//W3C//DTD SVG 1.1//EN" "http://www.w3.org/Graphics/SVG/1.1/DTD/svg11.dtd">
<svg version="1.1" xmlns="http://www.w3.org/2000/svg" xmlns:xlink="http://www.w3.org/1999/xlink" preserveAspectRatio="xMidYMid meet" viewBox="0 0 640 640" width="640" height="640"><defs><path d="M295.86 139.31L256.55 154.48L241.38 154.48L209.66 146.21L217.93 180L211.03 208.97L220.69 241.38L217.93 271.72L213.79 304.83L217.93 382.07L211.03 394.48L213.79 430.34L220.69 448.28L229.66 448.28L241.38 416.55L243.45 391.72L237.93 375.17L244.83 354.48L256.55 304.83L256.55 271.72L264.14 243.45L266.9 270.34L291.03 309.66L273.1 348.97L273.1 396.55L284.83 426.9L273.1 436.55L280.69 517.24L277.93 524.83L269.66 551.72L277.93 566.9L291.03 562.76L299.31 535.86L302.76 517.24L315.17 437.93L310.34 426.9L310.34 422.07L325.52 368.28L330.34 391.72L340 426.9L333.1 436.55L351.03 535.86L340 562.76L351.03 574.48L362.07 570.34L369.66 539.31L376.55 436.55L365.52 422.07L376.55 391.72L374.48 346.21L367.59 324.14L357.93 308.28L380.69 267.59L386.21 243.45L391.72 241.38L395.17 309.66L408.28 364.14L408.28 422.07L416.55 436.55L419.31 448.28L428.97 448.28L435.17 433.79L433.1 391.72L433.1 146.21L391.72 159.31L360 148.28L344.83 134.48L355.86 102.07L353.1 64.83L335.86 51.72L311.72 51.72L299.31 57.24L293.79 99.31L299.31 131.72L295.86 139.31Z" id="dwEnFfbGD"></path><radialGradient id="gradientg1iJtW8sBv" gradientUnits="userSpaceOnUse" cx="322.41" cy="51.72" dx="322.41" dy="574.48" r="522.76"><stop style="stop-color: #5f554a;stop-opacity: 1" offset="0%"></stop><stop style="stop-color: #55432c;stop-opacity: 1" offset="100%"></stop></radialGradient><path d="M331.72 224.14L340.69 217.24L346.21 205.52L342.76 190.34L331.72 181.38L316.55 181.38L306.9 192.41L303.45 205.52L311.03 219.31L326.21 226.21L331.72 224.14Z" id="b7opA9lnD"></path><path d="M308.13 94.48L320.54 94.48L322.95 89.66L318.47 84.14L311.57 84.14L303.99 86.9L308.13 94.48Z" id="ai3aVBzB8"></path><path d="M342.07 94.48L329.66 94.48L327.24 89.66L331.72 84.14L338.62 84.14L346.21 86.9L342.07 94.48Z" id="ckge20QPl"></path><path d="M292.18 316.55L358.35 316.55L353.83 307.53L292.18 307.53L292.18 316.55Z" id="h19SySqoTx"></path><path d="M274.67 441.37L313.47 443.62L310.76 428.58L285.2 428.58L274.67 441.37Z" id="i8Cou0LUW"></path><path d="M334.29 443.62L376.39 439.11L365.11 426.33L340.3 426.33L334.29 443.62Z" id="a2xChc2RnC"></path><path d="M299.7 137.61L343.31 137.61L346.21 130.84L303.45 130.84L299.7 137.61Z" id="b1O8aYVMBP"></path><path d="M274.14 351.89L303.45 354.15L324.83 366.93L346.21 351.89L373.38 348.13L369.62 340.61L350.08 340.61L324.83 357.16L299.7 340.61L277.89 340.61L274.14 351.89Z" id="b10ClJz2ju"></path><path d="M351.58 542.12L368.12 544.37L368.12 538.36L351.58 536.85L351.58 542.12Z" id="c85w8w8kSC"></path><path d="M277.14 531.59L299.7 536.85L299.7 527.83L280.9 524.07L277.14 531.59Z" id="dDXpmrHjF"></path></defs><g><g><g><g><filter id="shadow5909864" x="187.66" y="29.72" width="269.52" height="566.76" filterUnits="userSpaceOnUse" primitiveUnits="userSpaceOnUse"><feFlood></feFlood><feComposite in2="SourceAlpha" operator="in"></feComposite><feGaussianBlur stdDeviation="2.24"></feGaussianBlur><feOffset dx="0" dy="0" result="afterOffset"></feOffset><feFlood flood-color="#ff0000" flood-opacity="1"></feFlood><feComposite in2="afterOffset" operator="in"></feComposite><feMorphology operator="dilate" radius="7"></feMorphology><feComposite in2="SourceAlpha" operator="out"></feComposite></filter><path d="M295.86 139.31L256.55 154.48L241.38 154.48L209.66 146.21L217.93 180L211.03 208.97L220.69 241.38L217.93 271.72L213.79 304.83L217.93 382.07L211.03 394.48L213.79 430.34L220.69 448.28L229.66 448.28L241.38 416.55L243.45 391.72L237.93 375.17L244.83 354.48L256.55 304.83L256.55 271.72L264.14 243.45L266.9 270.34L291.03 309.66L273.1 348.97L273.1 396.55L284.83 426.9L273.1 436.55L280.69 517.24L277.93 524.83L269.66 551.72L277.93 566.9L291.03 562.76L299.31 535.86L302.76 517.24L315.17 437.93L310.34 426.9L310.34 422.07L325.52 368.28L330.34 391.72L340 426.9L333.1 436.55L351.03 535.86L340 562.76L351.03 574.48L362.07 570.34L369.66 539.31L376.55 436.55L365.52 422.07L376.55 391.72L374.48 346.21L367.59 324.14L357.93 308.28L380.69 267.59L386.21 243.45L391.72 241.38L395.17 309.66L408.28 364.14L408.28 422.07L416.55 436.55L419.31 448.28L428.97 448.28L435.17 433.79L433.1 391.72L433.1 146.21L391.72 159.31L360 148.28L344.83 134.48L355.86 102.07L353.1 64.83L335.86 51.72L311.72 51.72L299.31 57.24L293.79 99.31L299.31 131.72L295.86 139.31Z" id="cdfkwzEp5" fill="white" fill-opacity="1" filter="url(#shadow5909864)"></path></g><use xlink:href="#dwEnFfbGD" opacity="1" fill="url(#gradientg1iJtW8sBv)"></use><g><use xlink:href="#dwEnFfbGD" opacity="1" fill-opacity="0" stroke="#000000" stroke-width="6" stroke-opacity="1"></use></g><g><filter id="shadow7171522" x="196.66" y="38.72" width="251.52" height="548.76" filterUnits="userSpaceOnUse" primitiveUnits="userSpaceOnUse"><feFlood></feFlood><feComposite in2="SourceAlpha" operator="out"></feComposite><feGaussianBlur stdDeviation="1"></feGaussianBlur><feOffset dx="0" dy="0" result="afterOffset"></feOffset><feFlood flood-color="#383128" flood-opacity="1"></feFlood><feComposite in2="afterOffset" operator="in"></feComposite><feMorphology operator="dilate" radius="6"></feMorphology><feComposite in2="SourceAlpha" operator="in"></feComposite></filter><path d="M295.86 139.31L256.55 154.48L241.38 154.48L209.66 146.21L217.93 180L211.03 208.97L220.69 241.38L217.93 271.72L213.79 304.83L217.93 382.07L211.03 394.48L213.79 430.34L220.69 448.28L229.66 448.28L241.38 416.55L243.45 391.72L237.93 375.17L244.83 354.48L256.55 304.83L256.55 271.72L264.14 243.45L266.9 270.34L291.03 309.66L273.1 348.97L273.1 396.55L284.83 426.9L273.1 436.55L280.69 517.24L277.93 524.83L269.66 551.72L277.93 566.9L291.03 562.76L299.31 535.86L302.76 517.24L315.17 437.93L310.34 426.9L310.34 422.07L325.52 368.28L330.34 391.72L340 426.9L333.1 436.55L351.03 535.86L340 562.76L351.03 574.48L362.07 570.34L369.66 539.31L376.55 436.55L365.52 422.07L376.55 391.72L374.48 346.21L367.59 324.14L357.93 308.28L380.69 267.59L386.21 243.45L391.72 241.38L395.17 309.66L408.28 364.14L408.28 422.07L416.55 436.55L419.31 448.28L428.97 448.28L435.17 433.79L433.1 391.72L433.1 146.21L391.72 159.31L360 148.28L344.83 134.48L355.86 102.07L353.1 64.83L335.86 51.72L311.72 51.72L299.31 57.24L293.79 99.31L299.31 131.72L295.86 139.31Z" id="h2iGgKNztl" fill="white" fill-opacity="1" filter="url(#shadow7171522)"></path></g></g><g><g><filter id="shadow14838507" x="283.45" y="161.38" width="82.76" height="84.83" filterUnits="userSpaceOnUse" primitiveUnits="userSpaceOnUse"><feFlood></feFlood><feComposite in2="SourceAlpha" operator="in"></feComposite><feGaussianBlur stdDeviation="2"></feGaussianBlur><feOffset dx="0" dy="0" result="afterOffset"></feOffset><feFlood flood-color="#ff0000" flood-opacity="1"></feFlood><feComposite in2="afterOffset" operator="in"></feComposite><feMorphology operator="dilate" radius="7"></feMorphology><feComposite in2="SourceAlpha" operator="out"></feComposite></filter><path d="M331.72 224.14L340.69 217.24L346.21 205.52L342.76 190.34L331.72 181.38L316.55 181.38L306.9 192.41L303.45 205.52L311.03 219.31L326.21 226.21L331.72 224.14Z" id="g5X98VfwRg" fill="white" fill-opacity="1" filter="url(#shadow14838507)"></path></g><use xlink:href="#b7opA9lnD" opacity="1" fill="#ff1d1d" fill-opacity="1"></use><g><use xlink:href="#b7opA9lnD" opacity="1" fill-opacity="0" stroke="#000000" stroke-width="2" stroke-opacity="0.15"></use></g></g><g><g><filter id="shadow10142223" x="291.99" y="72.14" width="43.97" height="35.34" filterUnits="userSpaceOnUse" primitiveUnits="userSpaceOnUse"><feFlood></feFlood><feComposite in2="SourceAlpha" operator="in"></feComposite><feGaussianBlur stdDeviation="1"></feGaussianBlur><feOffset dx="1" dy="1" result="afterOffset"></feOffset><feFlood flood-color="#ff0000" flood-opacity="0.65"></feFlood><feComposite in2="afterOffset" operator="in"></feComposite><feMorphology operator="dilate" radius="4"></feMorphology><feComposite in2="SourceAlpha" operator="out"></feComposite></filter><path d="M308.13 94.48L320.54 94.48L322.95 89.66L318.47 84.14L311.57 84.14L303.99 86.9L308.13 94.48Z" id="c1n8qIdglU" fill="white" fill-opacity="1" filter="url(#shadow10142223)"></path></g><use xlink:href="#ai3aVBzB8" opacity="1" fill="#ff1d1d" fill-opacity="1"></use><g><use xlink:href="#ai3aVBzB8" opacity="1" fill-opacity="0" stroke="#000000" stroke-width="2" stroke-opacity="0.15"></use></g></g><g><g><filter id="shadow1337984" x="315.24" y="72.14" width="43.97" height="35.34" filterUnits="userSpaceOnUse" primitiveUnits="userSpaceOnUse"><feFlood></feFlood><feComposite in2="SourceAlpha" operator="in"></feComposite><feGaussianBlur stdDeviation="1"></feGaussianBlur><feOffset dx="1" dy="1" result="afterOffset"></feOffset><feFlood flood-color="#ff0000" flood-opacity="0.65"></feFlood><feComposite in2="afterOffset" operator="in"></feComposite><feMorphology operator="dilate" radius="4"></feMorphology><feComposite in2="SourceAlpha" operator="out"></feComposite></filter><path d="M342.07 94.48L329.66 94.48L327.24 89.66L331.72 84.14L338.62 84.14L346.21 86.9L342.07 94.48Z" id="g1Ozixs7BE" fill="white" fill-opacity="1" filter="url(#shadow1337984)"></path></g><use xlink:href="#ckge20QPl" opacity="1" fill="#ff1d1d" fill-opacity="1"></use><g><use xlink:href="#ckge20QPl" opacity="1" fill-opacity="0" stroke="#000000" stroke-width="2" stroke-opacity="0.15"></use></g></g><g><g><filter id="shadow3590225" x="281.18" y="296.53" width="88.17" height="31.02" filterUnits="userSpaceOnUse" primitiveUnits="userSpaceOnUse"><feFlood></feFlood><feComposite in2="SourceAlpha" operator="in"></feComposite><feGaussianBlur stdDeviation="1"></feGaussianBlur><feOffset dx="0" dy="0" result="afterOffset"></feOffset><feFlood flood-color="#ff0000" flood-opacity="0.65"></feFlood><feComposite in2="afterOffset" operator="in"></feComposite><feMorphology operator="dilate" radius="4"></feMorphology><feComposite in2="SourceAlpha" operator="out"></feComposite></filter><path d="M292.18 316.55L358.35 316.55L353.83 307.53L292.18 307.53L292.18 316.55Z" id="bNlkBdLwn" fill="white" fill-opacity="1" filter="url(#shadow3590225)"></path></g><use xlink:href="#h19SySqoTx" opacity="1" fill="#ff1d1d" fill-opacity="1"></use><g><use xlink:href="#h19SySqoTx" opacity="1" fill-opacity="0" stroke="#000000" stroke-width="2" stroke-opacity="0.15"></use></g></g><g><g><filter id="shadow9730226" x="263.67" y="417.58" width="60.8" height="37.04" filterUnits="userSpaceOnUse" primitiveUnits="userSpaceOnUse"><feFlood></feFlood><feComposite in2="SourceAlpha" operator="in"></feComposite><feGaussianBlur stdDeviation="1"></feGaussianBlur><feOffset dx="0" dy="0" result="afterOffset"></feOffset><feFlood flood-color="#ff0000" flood-opacity="0.65"></feFlood><feComposite in2="afterOffset" operator="in"></feComposite><feMorphology operator="dilate" radius="4"></feMorphology><feComposite in2="SourceAlpha" operator="out"></feComposite></filter><path d="M274.67 441.37L313.47 443.62L310.76 428.58L285.2 428.58L274.67 441.37Z" id="d1BirI3L5n" fill="white" fill-opacity="1" filter="url(#shadow9730226)"></path></g><use xlink:href="#i8Cou0LUW" opacity="1" fill="#ff1d1d" fill-opacity="1"></use><g><use xlink:href="#i8Cou0LUW" opacity="1" fill-opacity="0" stroke="#000000" stroke-width="2" stroke-opacity="0.15"></use></g></g><g><g><filter id="shadow5380695" x="323.29" y="415.33" width="64.11" height="39.29" filterUnits="userSpaceOnUse" primitiveUnits="userSpaceOnUse"><feFlood></feFlood><feComposite in2="SourceAlpha" operator="in"></feComposite><feGaussianBlur stdDeviation="1"></feGaussianBlur><feOffset dx="0" dy="0" result="afterOffset"></feOffset><feFlood flood-color="#ff0000" flood-opacity="0.65"></feFlood><feComposite in2="afterOffset" operator="in"></feComposite><feMorphology operator="dilate" radius="4"></feMorphology><feComposite in2="SourceAlpha" operator="out"></feComposite></filter><path d="M334.29 443.62L376.39 439.11L365.11 426.33L340.3 426.33L334.29 443.62Z" id="e8MupPyaj" fill="white" fill-opacity="1" filter="url(#shadow5380695)"></path></g><use xlink:href="#a2xChc2RnC" opacity="1" fill="#ff1d1d" fill-opacity="1"></use><g><use xlink:href="#a2xChc2RnC" opacity="1" fill-opacity="0" stroke="#000000" stroke-width="2" stroke-opacity="0.15"></use></g></g><g><g><filter id="shadow15233182" x="288.7" y="119.84" width="68.51" height="28.77" filterUnits="userSpaceOnUse" primitiveUnits="userSpaceOnUse"><feFlood></feFlood><feComposite in2="SourceAlpha" operator="in"></feComposite><feGaussianBlur stdDeviation="1"></feGaussianBlur><feOffset dx="0" dy="0" result="afterOffset"></feOffset><feFlood flood-color="#ff0000" flood-opacity="0.65"></feFlood><feComposite in2="afterOffset" operator="in"></feComposite><feMorphology operator="dilate" radius="4"></feMorphology><feComposite in2="SourceAlpha" operator="out"></feComposite></filter><path d="M299.7 137.61L343.31 137.61L346.21 130.84L303.45 130.84L299.7 137.61Z" id="g2QTBA4P3A" fill="white" fill-opacity="1" filter="url(#shadow15233182)"></path></g><use xlink:href="#b1O8aYVMBP" opacity="1" fill="#ff1d1d" fill-opacity="1"></use><g><use xlink:href="#b1O8aYVMBP" opacity="1" fill-opacity="0" stroke="#000000" stroke-width="2" stroke-opacity="0.15"></use></g></g><g><g><filter id="shadow437049" x="263.14" y="329.61" width="121.25" height="48.32" filterUnits="userSpaceOnUse" primitiveUnits="userSpaceOnUse"><feFlood></feFlood><feComposite in2="SourceAlpha" operator="in"></feComposite><feGaussianBlur stdDeviation="1"></feGaussianBlur><feOffset dx="0" dy="0" result="afterOffset"></feOffset><feFlood flood-color="#ff0000" flood-opacity="0.65"></feFlood><feComposite in2="afterOffset" operator="in"></feComposite><feMorphology operator="dilate" radius="4"></feMorphology><feComposite in2="SourceAlpha" operator="out"></feComposite></filter><path d="M274.14 351.89L303.45 354.15L324.83 366.93L346.21 351.89L373.38 348.13L369.62 340.61L350.08 340.61L324.83 357.16L299.7 340.61L277.89 340.61L274.14 351.89Z" id="c14EvM7WQa" fill="white" fill-opacity="1" filter="url(#shadow437049)"></path></g><use xlink:href="#b10ClJz2ju" opacity="1" fill="#ff1d1d" fill-opacity="1"></use><g><use xlink:href="#b10ClJz2ju" opacity="1" fill-opacity="0" stroke="#000000" stroke-width="2" stroke-opacity="0.15"></use></g></g><g><use xlink:href="#c85w8w8kSC" opacity="1" fill="#ff1d1d" fill-opacity="1"></use><g><use xlink:href="#c85w8w8kSC" opacity="1" fill-opacity="0" stroke="#000000" stroke-width="2" stroke-opacity="0.15"></use></g></g><g><use xlink:href="#dDXpmrHjF" opacity="1" fill="#ff1d1d" fill-opacity="1"></use><g><use xlink:href="#dDXpmrHjF" opacity="1" fill-opacity="0" stroke="#000000" stroke-width="2" stroke-opacity="0.15"></use></g></g></g></g></svg>