<?xml version="1.0" encoding="UTF-8" standalone="no"?>
<!DOCTYPE svg PUBLIC "-//W3C//DTD SVG 1.1//EN" "http://www.w3.org/Graphics/SVG/1.1/DTD/svg11.dtd">
<svg version="1.1" xmlns="http://www.w3.org/2000/svg" xmlns:xlink="http://www.w3.org/1999/xlink" preserveAspectRatio="xMidYMid meet" viewBox="0 0 640 640" width="300" height="300"><defs><path d="M322.07 291.03L293.79 295.86L254.48 313.1L233.1 344.83L227.59 380L251.03 380L246.21 357.24L262.76 340L295.86 340L295.86 388.97L287.59 411.72L262.76 451.03L282.07 462.76L313.79 420.69L320 388.97L341.38 415.17L329.66 447.59L325.52 466.21L347.59 468.28L353.1 447.59L369.66 406.9L344.14 364.14L341.38 340L381.38 373.79L408.97 373.79L408.97 362.07L395.17 357.24L360 325.52L347.59 302.76L363.45 300L379.31 285.52L379.31 257.24L366.9 240L337.93 240L325.52 248.97L325.52 266.9L322.07 291.03Z" id="b10Q7I4dCY"></path><path d="M293.79 340.69L275.86 338.62L277.24 298.62L313.79 289.66L352.41 312.41L357.93 320L380.69 337.24L357.93 358.62L345.52 346.21L352.41 366.9L293.79 360.69L293.79 340.69Z" id="d1WT1KF8eX"></path><radialGradient id="gradienta4hgoOhL3f" gradientUnits="userSpaceOnUse" cx="328.28" cy="289.66" dx="328.28" dy="366.9" r="77.24"><stop style="stop-color: #ffffff;stop-opacity: 1" offset="0%"></stop><stop style="stop-color: #6f6f6f;stop-opacity: 1" offset="100%"></stop></radialGradient><path d="M358.62 371.03L377.93 407.59L358.62 458.62L320 453.79L330.34 413.79L323.45 405.52L315.86 429.66L296.55 458.62L266.21 433.79L288.97 391.72L292.41 365.52L358.62 371.03Z" id="bLRb1vJ8u"></path><radialGradient id="gradientacRrWjTnd" gradientUnits="userSpaceOnUse" cx="322.07" cy="365.52" dx="322.07" dy="458.62" r="93.1"><stop style="stop-color: #ffffff;stop-opacity: 1" offset="0%"></stop><stop style="stop-color: #5f5d5d;stop-opacity: 1" offset="100%"></stop></radialGradient><path d="M322.07 458.62L322.07 476.55L384.14 482.07L384.14 471.03L371.72 464.41L351.03 461.38L322.07 458.62Z" id="e1tBVX3ciu"></path><radialGradient id="gradientd2AwxD3PKI" gradientUnits="userSpaceOnUse" cx="353.1" cy="458.62" dx="353.1" dy="482.07" r="23.45"><stop style="stop-color: #ffffff;stop-opacity: 1" offset="0%"></stop><stop style="stop-color: #909090;stop-opacity: 1" offset="100%"></stop></radialGradient><path d="M265.88 442.61L256.92 458.13L307.91 493.95L313.43 484.39L305.99 472.45L289.59 459.48L265.88 442.61Z" id="a4zK2TZ1GM"></path><radialGradient id="gradientbZph71f8n" gradientUnits="userSpaceOnUse" cx="292.76" cy="458.12" dx="281.03" dy="478.43" r="23.45"><stop style="stop-color: #ffffff;stop-opacity: 1" offset="0%"></stop><stop style="stop-color: #909090;stop-opacity: 1" offset="100%"></stop></radialGradient><path d="M346.9 264.9C346.9 268.13 344.27 270.76 341.03 270.76C337.8 270.76 335.17 268.13 335.17 264.9C335.17 261.66 337.8 259.03 341.03 259.03C344.27 259.03 346.9 261.66 346.9 264.9Z" id="c1i3WGlcGK"></path><path d="M372.07 263.17C372.07 266.41 369.44 269.03 366.21 269.03C362.97 269.03 360.34 266.41 360.34 263.17C360.34 259.94 362.97 257.31 366.21 257.31C369.44 257.31 372.07 259.94 372.07 263.17Z" id="bgfxfpqpd"></path><path d="M320 242.48L331.03 232.83L371.03 232.83L380.69 242.48L380.69 289.66L361.03 296.97L363.45 282.48L377.93 272.83L377.93 256.62L372.76 250.76L363.45 250.76L357.93 256.62L355.17 282.48L348.97 282.48L351.03 259.03L346.9 253.52L337.24 253.52L331.03 259.03L331.03 272.83L335.17 282.48L331.03 293.52L320 285.93L320 242.48Z" id="c3sfy9QU4O"></path><radialGradient id="gradientcnDLC1ddB" gradientUnits="userSpaceOnUse" cx="350.34" cy="232.83" dx="350.34" dy="296.97" r="64.14"><stop style="stop-color: #ffffff;stop-opacity: 1" offset="0%"></stop><stop style="stop-color: #545454;stop-opacity: 1" offset="100%"></stop></radialGradient><path d="M444.14 365.52C444.14 380.93 432.09 393.45 417.24 393.45C402.4 393.45 390.34 380.93 390.34 365.52C390.34 350.1 402.4 337.59 417.24 337.59C432.09 337.59 444.14 350.1 444.14 365.52Z" id="b10J27Lo6K"></path><radialGradient id="gradientcmgeXacm6" gradientUnits="userSpaceOnUse" cx="417.24" cy="367.24" dx="417.24" dy="423.1" r="55.86"><stop style="stop-color: #0021ff;stop-opacity: 1" offset="0%"></stop><stop style="stop-color: #00f0ff;stop-opacity: 1" offset="100%"></stop></radialGradient><path d="M308.28 354.14C308.28 357.37 305.65 360 302.41 360C299.18 360 296.55 357.37 296.55 354.14C296.55 350.9 299.18 348.28 302.41 348.28C305.65 348.28 308.28 350.9 308.28 354.14Z" id="a7WxVYMOPJ"></path><radialGradient id="gradienta1KVDRPd0k" gradientUnits="userSpaceOnUse" cx="302.41" cy="354.14" dx="302.41" dy="365.86" r="11.72"><stop style="stop-color: #b6b6b6;stop-opacity: 1" offset="0%"></stop><stop style="stop-color: #3f3f3f;stop-opacity: 1" offset="100%"></stop></radialGradient><path d="M325.86 356.28C325.86 359.51 323.24 362.14 320 362.14C316.76 362.14 314.14 359.51 314.14 356.28C314.14 353.04 316.76 350.41 320 350.41C323.24 350.41 325.86 353.04 325.86 356.28Z" id="csoP9nSMi"></path><radialGradient id="gradientaK5WRlJgh" gradientUnits="userSpaceOnUse" cx="320" cy="356.28" dx="320" dy="368" r="11.72"><stop style="stop-color: #b6b6b6;stop-opacity: 1" offset="0%"></stop><stop style="stop-color: #3f3f3f;stop-opacity: 1" offset="100%"></stop></radialGradient><path d="M343.45 358C343.45 361.24 340.82 363.86 337.59 363.86C334.35 363.86 331.72 361.24 331.72 358C331.72 354.76 334.35 352.14 337.59 352.14C340.82 352.14 343.45 354.76 343.45 358Z" id="a1dWHPiQm4"></path><radialGradient id="gradientcCNvFD6xk" gradientUnits="userSpaceOnUse" cx="337.59" cy="358" dx="337.59" dy="369.72" r="11.72"><stop style="stop-color: #b6b6b6;stop-opacity: 1" offset="0%"></stop><stop style="stop-color: #3f3f3f;stop-opacity: 1" offset="100%"></stop></radialGradient><path d="M345.28 351.01L291.28 345.54L345.28 351.01Z" id="b1e1mvDD3h"></path><path d="M263.79 376.21C263.79 391.62 251.74 404.14 236.9 404.14C222.05 404.14 210 391.62 210 376.21C210 360.79 222.05 348.28 236.9 348.28C251.74 348.28 263.79 360.79 263.79 376.21Z" id="al1UyQPu1"></path><radialGradient id="gradientb3bvXVcxA8" gradientUnits="userSpaceOnUse" cx="236.9" cy="377.93" dx="236.9" dy="433.79" r="55.86"><stop style="stop-color: #0021ff;stop-opacity: 1" offset="0%"></stop><stop style="stop-color: #00f0ff;stop-opacity: 1" offset="100%"></stop></radialGradient></defs><g><g><g><g><filter id="shadow2324153" x="213.59" y="226" width="209.38" height="256.28" filterUnits="userSpaceOnUse" primitiveUnits="userSpaceOnUse"><feFlood></feFlood><feComposite in2="SourceAlpha" operator="in"></feComposite><feGaussianBlur stdDeviation="1"></feGaussianBlur><feOffset dx="0" dy="0" result="afterOffset"></feOffset><feFlood flood-color="#000eff" flood-opacity="0.5"></feFlood><feComposite in2="afterOffset" operator="in"></feComposite><feMorphology operator="dilate" radius="7"></feMorphology><feComposite in2="SourceAlpha" operator="out"></feComposite></filter><path d="M322.07 291.03L293.79 295.86L254.48 313.1L233.1 344.83L227.59 380L251.03 380L246.21 357.24L262.76 340L295.86 340L295.86 388.97L287.59 411.72L262.76 451.03L282.07 462.76L313.79 420.69L320 388.97L341.38 415.17L329.66 447.59L325.52 466.21L347.59 468.28L353.1 447.59L369.66 406.9L344.14 364.14L341.38 340L381.38 373.79L408.97 373.79L408.97 362.07L395.17 357.24L360 325.52L347.59 302.76L363.45 300L379.31 285.52L379.31 257.24L366.9 240L337.93 240L325.52 248.97L325.52 266.9L322.07 291.03Z" id="ahSW0pFS2" fill="white" fill-opacity="1" filter="url(#shadow2324153)"></path></g><use xlink:href="#b10Q7I4dCY" opacity="1" fill="#878787" fill-opacity="0.44"></use><g><use xlink:href="#b10Q7I4dCY" opacity="1" fill-opacity="0" stroke="#000000" stroke-width="5" stroke-opacity="1"></use></g></g><g><use xlink:href="#d1WT1KF8eX" opacity="1" fill="url(#gradienta4hgoOhL3f)"></use><g><use xlink:href="#d1WT1KF8eX" opacity="1" fill-opacity="0" stroke="#000000" stroke-width="4" stroke-opacity="1"></use></g></g><g><g><filter id="shadow10395406" x="255.21" y="354.52" width="133.72" height="115.1" filterUnits="userSpaceOnUse" primitiveUnits="userSpaceOnUse"><feFlood></feFlood><feComposite in2="SourceAlpha" operator="in"></feComposite><feGaussianBlur stdDeviation="1"></feGaussianBlur><feOffset dx="0" dy="0" result="afterOffset"></feOffset><feFlood flood-color="#0017ff" flood-opacity="0.5"></feFlood><feComposite in2="afterOffset" operator="in"></feComposite><feMorphology operator="dilate" radius="4"></feMorphology><feComposite in2="SourceAlpha" operator="out"></feComposite></filter><path d="M358.62 371.03L377.93 407.59L358.62 458.62L320 453.79L330.34 413.79L323.45 405.52L315.86 429.66L296.55 458.62L266.21 433.79L288.97 391.72L292.41 365.52L358.62 371.03Z" id="b4vK9v8Fgp" fill="white" fill-opacity="1" filter="url(#shadow10395406)"></path></g><use xlink:href="#bLRb1vJ8u" opacity="1" fill="url(#gradientacRrWjTnd)"></use><g><use xlink:href="#bLRb1vJ8u" opacity="1" fill-opacity="0" stroke="#000000" stroke-width="4" stroke-opacity="1"></use></g></g><g><g><filter id="shadow6281727" x="311.07" y="447.62" width="84.07" height="45.45" filterUnits="userSpaceOnUse" primitiveUnits="userSpaceOnUse"><feFlood></feFlood><feComposite in2="SourceAlpha" operator="in"></feComposite><feGaussianBlur stdDeviation="1"></feGaussianBlur><feOffset dx="0" dy="0" result="afterOffset"></feOffset><feFlood flood-color="#000eff" flood-opacity="0.5"></feFlood><feComposite in2="afterOffset" operator="in"></feComposite><feMorphology operator="dilate" radius="4"></feMorphology><feComposite in2="SourceAlpha" operator="out"></feComposite></filter><path d="M322.07 458.62L322.07 476.55L384.14 482.07L384.14 471.03L371.72 464.41L351.03 461.38L322.07 458.62Z" id="c4h5oOGMC" fill="white" fill-opacity="1" filter="url(#shadow6281727)"></path></g><use xlink:href="#e1tBVX3ciu" opacity="1" fill="url(#gradientd2AwxD3PKI)"></use><g><use xlink:href="#e1tBVX3ciu" opacity="1" fill-opacity="0" stroke="#000000" stroke-width="3" stroke-opacity="1"></use></g></g><g><g><filter id="shadow1517177" x="245.92" y="431.61" width="78.51" height="73.34" filterUnits="userSpaceOnUse" primitiveUnits="userSpaceOnUse"><feFlood></feFlood><feComposite in2="SourceAlpha" operator="in"></feComposite><feGaussianBlur stdDeviation="1"></feGaussianBlur><feOffset dx="0" dy="0" result="afterOffset"></feOffset><feFlood flood-color="#0029ff" flood-opacity="0.5"></feFlood><feComposite in2="afterOffset" operator="in"></feComposite><feMorphology operator="dilate" radius="4"></feMorphology><feComposite in2="SourceAlpha" operator="out"></feComposite></filter><path d="M265.88 442.61L256.92 458.13L307.91 493.95L313.43 484.39L305.99 472.45L289.59 459.48L265.88 442.61Z" id="b2v4RzNv6u" fill="white" fill-opacity="1" filter="url(#shadow1517177)"></path></g><use xlink:href="#a4zK2TZ1GM" opacity="1" fill="url(#gradientbZph71f8n)"></use><g><use xlink:href="#a4zK2TZ1GM" opacity="1" fill-opacity="0" stroke="#000000" stroke-width="3" stroke-opacity="1"></use></g></g><g><g><filter id="shadow15563416" x="322.17" y="246.03" width="37.72" height="37.72" filterUnits="userSpaceOnUse" primitiveUnits="userSpaceOnUse"><feFlood></feFlood><feComposite in2="SourceAlpha" operator="in"></feComposite><feGaussianBlur stdDeviation="1"></feGaussianBlur><feOffset dx="0" dy="0" result="afterOffset"></feOffset><feFlood flood-color="#000000" flood-opacity="0.5"></feFlood><feComposite in2="afterOffset" operator="in"></feComposite><feMorphology operator="dilate" radius="6"></feMorphology><feComposite in2="SourceAlpha" operator="out"></feComposite></filter><path d="M346.9 264.9C346.9 268.13 344.27 270.76 341.03 270.76C337.8 270.76 335.17 268.13 335.17 264.9C335.17 261.66 337.8 259.03 341.03 259.03C344.27 259.03 346.9 261.66 346.9 264.9Z" id="fJW0cxFEw" fill="white" fill-opacity="1" filter="url(#shadow15563416)"></path></g><use xlink:href="#c1i3WGlcGK" opacity="1" fill="#ffffff" fill-opacity="1"></use><g><use xlink:href="#c1i3WGlcGK" opacity="1" fill-opacity="0" stroke="#000000" stroke-width="3" stroke-opacity="1"></use></g></g><g><g><filter id="shadow694899" x="347.34" y="244.31" width="37.72" height="37.72" filterUnits="userSpaceOnUse" primitiveUnits="userSpaceOnUse"><feFlood></feFlood><feComposite in2="SourceAlpha" operator="in"></feComposite><feGaussianBlur stdDeviation="1"></feGaussianBlur><feOffset dx="0" dy="0" result="afterOffset"></feOffset><feFlood flood-color="#000000" flood-opacity="0.5"></feFlood><feComposite in2="afterOffset" operator="in"></feComposite><feMorphology operator="dilate" radius="6"></feMorphology><feComposite in2="SourceAlpha" operator="out"></feComposite></filter><path d="M372.07 263.17C372.07 266.41 369.44 269.03 366.21 269.03C362.97 269.03 360.34 266.41 360.34 263.17C360.34 259.94 362.97 257.31 366.21 257.31C369.44 257.31 372.07 259.94 372.07 263.17Z" id="dvEIGA160" fill="white" fill-opacity="1" filter="url(#shadow694899)"></path></g><use xlink:href="#bgfxfpqpd" opacity="1" fill="#ffffff" fill-opacity="1"></use><g><use xlink:href="#bgfxfpqpd" opacity="1" fill-opacity="0" stroke="#000000" stroke-width="3" stroke-opacity="1"></use></g></g><g><g><filter id="shadow11919820" x="307" y="219.83" width="87.69" height="91.14" filterUnits="userSpaceOnUse" primitiveUnits="userSpaceOnUse"><feFlood></feFlood><feComposite in2="SourceAlpha" operator="in"></feComposite><feGaussianBlur stdDeviation="1.41"></feGaussianBlur><feOffset dx="1" dy="1" result="afterOffset"></feOffset><feFlood flood-color="#1400ff" flood-opacity="0.5"></feFlood><feComposite in2="afterOffset" operator="in"></feComposite><feMorphology operator="dilate" radius="3"></feMorphology><feComposite in2="SourceAlpha" operator="out"></feComposite></filter><path d="M320 242.48L331.03 232.83L371.03 232.83L380.69 242.48L380.69 289.66L361.03 296.97L363.45 282.48L377.93 272.83L377.93 256.62L372.76 250.76L363.45 250.76L357.93 256.62L355.17 282.48L348.97 282.48L351.03 259.03L346.9 253.52L337.24 253.52L331.03 259.03L331.03 272.83L335.17 282.48L331.03 293.52L320 285.93L320 242.48Z" id="h1gBFNCyeu" fill="white" fill-opacity="1" filter="url(#shadow11919820)"></path></g><use xlink:href="#c3sfy9QU4O" opacity="1" fill="url(#gradientcnDLC1ddB)"></use><g><use xlink:href="#c3sfy9QU4O" opacity="1" fill-opacity="0" stroke="#000000" stroke-width="3" stroke-opacity="1"></use></g></g><g><g><filter id="shadow924475" x="377.34" y="324.59" width="79.79" height="81.86" filterUnits="userSpaceOnUse" primitiveUnits="userSpaceOnUse"><feFlood></feFlood><feComposite in2="SourceAlpha" operator="in"></feComposite><feGaussianBlur stdDeviation="1.41"></feGaussianBlur><feOffset dx="0" dy="0" result="afterOffset"></feOffset><feFlood flood-color="#0029ff" flood-opacity="0.5"></feFlood><feComposite in2="afterOffset" operator="in"></feComposite><feMorphology operator="dilate" radius="4"></feMorphology><feComposite in2="SourceAlpha" operator="out"></feComposite></filter><path d="M444.14 365.52C444.14 380.93 432.09 393.45 417.24 393.45C402.4 393.45 390.34 380.93 390.34 365.52C390.34 350.1 402.4 337.59 417.24 337.59C432.09 337.59 444.14 350.1 444.14 365.52Z" id="d50sjeryyd" fill="white" fill-opacity="1" filter="url(#shadow924475)"></path></g><use xlink:href="#b10J27Lo6K" opacity="1" fill="url(#gradientcmgeXacm6)"></use><g><use xlink:href="#b10J27Lo6K" opacity="1" fill-opacity="0" stroke="#00f0ff" stroke-width="0" stroke-opacity="1"></use></g><g><filter id="shadow15856150" x="381.34" y="328.59" width="72.79" height="74.86" filterUnits="userSpaceOnUse" primitiveUnits="userSpaceOnUse"><feFlood></feFlood><feComposite in2="SourceAlpha" operator="out"></feComposite><feGaussianBlur stdDeviation="1"></feGaussianBlur><feOffset dx="1" dy="1" result="afterOffset"></feOffset><feFlood flood-color="#ffffff" flood-opacity="0.8"></feFlood><feComposite in2="afterOffset" operator="in"></feComposite><feMorphology operator="dilate" radius="1"></feMorphology><feComposite in2="SourceAlpha" operator="in"></feComposite></filter><path d="M444.14 365.52C444.14 380.93 432.09 393.45 417.24 393.45C402.4 393.45 390.34 380.93 390.34 365.52C390.34 350.1 402.4 337.59 417.24 337.59C432.09 337.59 444.14 350.1 444.14 365.52Z" id="a3104m0lCF" fill="white" fill-opacity="1" filter="url(#shadow15856150)"></path></g></g><g><use xlink:href="#a7WxVYMOPJ" opacity="1" fill="url(#gradienta1KVDRPd0k)"></use><g><use xlink:href="#a7WxVYMOPJ" opacity="1" fill-opacity="0" stroke="#000000" stroke-width="2" stroke-opacity="1"></use></g></g><g><use xlink:href="#csoP9nSMi" opacity="1" fill="url(#gradientaK5WRlJgh)"></use><g><use xlink:href="#csoP9nSMi" opacity="1" fill-opacity="0" stroke="#000000" stroke-width="2" stroke-opacity="1"></use></g></g><g><use xlink:href="#a1dWHPiQm4" opacity="1" fill="url(#gradientcCNvFD6xk)"></use><g><use xlink:href="#a1dWHPiQm4" opacity="1" fill-opacity="0" stroke="#000000" stroke-width="2" stroke-opacity="1"></use></g></g><g><g><use xlink:href="#b1e1mvDD3h" opacity="1" fill-opacity="0" stroke="#000000" stroke-width="4" stroke-opacity="1"></use></g></g><g><g><filter id="shadow6759141" x="197" y="335.28" width="79.79" height="81.86" filterUnits="userSpaceOnUse" primitiveUnits="userSpaceOnUse"><feFlood></feFlood><feComposite in2="SourceAlpha" operator="in"></feComposite><feGaussianBlur stdDeviation="1.41"></feGaussianBlur><feOffset dx="0" dy="0" result="afterOffset"></feOffset><feFlood flood-color="#0029ff" flood-opacity="0.5"></feFlood><feComposite in2="afterOffset" operator="in"></feComposite><feMorphology operator="dilate" radius="4"></feMorphology><feComposite in2="SourceAlpha" operator="out"></feComposite></filter><path d="M263.79 376.21C263.79 391.62 251.74 404.14 236.9 404.14C222.05 404.14 210 391.62 210 376.21C210 360.79 222.05 348.28 236.9 348.28C251.74 348.28 263.79 360.79 263.79 376.21Z" id="e1DQ68S99O" fill="white" fill-opacity="1" filter="url(#shadow6759141)"></path></g><use xlink:href="#al1UyQPu1" opacity="1" fill="url(#gradientb3bvXVcxA8)"></use><g><use xlink:href="#al1UyQPu1" opacity="1" fill-opacity="0" stroke="#00f0ff" stroke-width="0" stroke-opacity="1"></use></g><g><filter id="shadow6390425" x="201" y="339.28" width="72.79" height="74.86" filterUnits="userSpaceOnUse" primitiveUnits="userSpaceOnUse"><feFlood></feFlood><feComposite in2="SourceAlpha" operator="out"></feComposite><feGaussianBlur stdDeviation="1"></feGaussianBlur><feOffset dx="1" dy="1" result="afterOffset"></feOffset><feFlood flood-color="#ffffff" flood-opacity="0.8"></feFlood><feComposite in2="afterOffset" operator="in"></feComposite><feMorphology operator="dilate" radius="1"></feMorphology><feComposite in2="SourceAlpha" operator="in"></feComposite></filter><path d="M263.79 376.21C263.79 391.62 251.74 404.14 236.9 404.14C222.05 404.14 210 391.62 210 376.21C210 360.79 222.05 348.28 236.9 348.28C251.74 348.28 263.79 360.79 263.79 376.21Z" id="j7LzqD1sD2" fill="white" fill-opacity="1" filter="url(#shadow6390425)"></path></g></g></g></g></svg>