<?xml version="1.0" encoding="UTF-8" standalone="no"?>
<!DOCTYPE svg PUBLIC "-//W3C//DTD SVG 1.1//EN" "http://www.w3.org/Graphics/SVG/1.1/DTD/svg11.dtd">
<svg version="1.1" xmlns="http://www.w3.org/2000/svg" xmlns:xlink="http://www.w3.org/1999/xlink" preserveAspectRatio="xMidYMid meet" viewBox="0 0 640 640" width="300" height="300"><defs><path d="M156.9 313.44L103.8 327.93L72.76 350L54.83 393.44L40.35 458.96L40.35 506.55L372.76 502.41L372.76 438.27L361.04 380.34L336.9 341.03L298.28 325.86L262.42 321.72L278.97 298.27L285.87 288.62L296.21 249.31L301.73 200.34L285.87 165.17L236.9 150L185.87 150L142.42 174.82L130.69 217.58L136.9 263.1L141.04 288.62L156.9 313.44Z" id="bFMLNyDi"></path><path d="M362.07 311.72L308.97 326.2L277.94 348.27L260 391.72L245.52 457.24L245.52 504.82L577.94 500.69L577.94 436.55L566.21 378.62L542.07 339.31L503.45 324.13L467.59 320L484.14 296.55L491.04 286.89L501.38 247.58L506.9 198.62L491.04 163.44L442.07 148.27L391.04 148.27L347.59 173.1L335.87 215.86L342.07 261.38L346.21 286.89L362.07 311.72Z" id="bPM8kdIAO"></path></defs><g><g><g><use xlink:href="#bFMLNyDi" opacity="1" fill="#ffffff" fill-opacity="1"></use><g><use xlink:href="#bFMLNyDi" opacity="1" fill-opacity="0" stroke="#000000" stroke-width="15" stroke-opacity="1"></use></g></g><g><use xlink:href="#bPM8kdIAO" opacity="1" fill="#ffffff" fill-opacity="1"></use><g><use xlink:href="#bPM8kdIAO" opacity="1" fill-opacity="0" stroke="#000000" stroke-width="15" stroke-opacity="1"></use></g></g></g></g></svg>