<?xml version="1.0" encoding="UTF-8" standalone="no"?>
<!DOCTYPE svg PUBLIC "-//W3C//DTD SVG 1.1//EN" "http://www.w3.org/Graphics/SVG/1.1/DTD/svg11.dtd">
<svg version="1.1" xmlns="http://www.w3.org/2000/svg" xmlns:xlink="http://www.w3.org/1999/xlink" preserveAspectRatio="xMidYMid meet" viewBox="0 0 640 640" width="300" height="300"><defs><path d="M282.41 215.05L236.54 215.05L236.54 348.88L236.54 384.22L247.07 389.49L259.85 363.92L253.08 348.88L262.86 320L274.89 269.19L297.44 306.78L282.41 328.58L282.41 363.92L286.92 378.96L279.4 387.23L286.92 440.61L270.38 456.4L279.4 465.43L289.17 465.43L303.46 448.13L316.99 387.23L310.98 378.96L322.26 341.37L333.53 375.95L328.27 389.49L338.8 448.13L333.53 467.68L343.31 474.45L356.09 467.68L362.86 389.49L359.1 375.95L362.86 328.58L350.83 306.78L371.88 266.18L377.89 306.78L386.92 354.9L384.66 373.7L402.71 394.75L410.98 387.23L407.97 215.05L367.37 215.05L338.8 197.01L347.07 167.68L338.8 150.39L303.46 150.39L297.44 172.19L303.46 197.01L282.41 215.05Z" id="e6zoZ7kxLB"></path><path d="M338.05 242.87L332.03 230.84L317.74 227.08L305.71 236.85L309.47 249.64L323.76 254.9L338.05 242.87Z" id="aIsnqFXXS"></path><path d="M321.71 170L313.29 176.56L305.71 170L321.71 170Z" id="c38ybCYYGM"></path><path d="M340 170L331.58 176.56L324 170L340 170Z" id="d6wpgzFieu"></path></defs><g><g><g><g><filter id="shadow4792437" x="224.54" y="138.39" width="198.44" height="348.06" filterUnits="userSpaceOnUse" primitiveUnits="userSpaceOnUse"><feFlood></feFlood><feComposite in2="SourceAlpha" operator="in"></feComposite><feGaussianBlur stdDeviation="1"></feGaussianBlur><feOffset dx="0" dy="0" result="afterOffset"></feOffset><feFlood flood-color="#ff0000" flood-opacity="0.46"></feFlood><feComposite in2="afterOffset" operator="in"></feComposite><feMorphology operator="dilate" radius="5"></feMorphology><feComposite in2="SourceAlpha" operator="out"></feComposite></filter><path d="M282.41 215.05L236.54 215.05L236.54 348.88L236.54 384.22L247.07 389.49L259.85 363.92L253.08 348.88L262.86 320L274.89 269.19L297.44 306.78L282.41 328.58L282.41 363.92L286.92 378.96L279.4 387.23L286.92 440.61L270.38 456.4L279.4 465.43L289.17 465.43L303.46 448.13L316.99 387.23L310.98 378.96L322.26 341.37L333.53 375.95L328.27 389.49L338.8 448.13L333.53 467.68L343.31 474.45L356.09 467.68L362.86 389.49L359.1 375.95L362.86 328.58L350.83 306.78L371.88 266.18L377.89 306.78L386.92 354.9L384.66 373.7L402.71 394.75L410.98 387.23L407.97 215.05L367.37 215.05L338.8 197.01L347.07 167.68L338.8 150.39L303.46 150.39L297.44 172.19L303.46 197.01L282.41 215.05Z" id="bheGST8vd" fill="white" fill-opacity="1" filter="url(#shadow4792437)"></path></g><use xlink:href="#e6zoZ7kxLB" opacity="1" fill="#63563b" fill-opacity="1"></use><g><use xlink:href="#e6zoZ7kxLB" opacity="1" fill-opacity="0" stroke="#000000" stroke-width="5" stroke-opacity="1"></use></g><g><filter id="shadow15283804" x="225.54" y="139.39" width="196.44" height="346.06" filterUnits="userSpaceOnUse" primitiveUnits="userSpaceOnUse"><feFlood></feFlood><feComposite in2="SourceAlpha" operator="out"></feComposite><feGaussianBlur stdDeviation="1"></feGaussianBlur><feOffset dx="0" dy="0" result="afterOffset"></feOffset><feFlood flood-color="#443b2a" flood-opacity="1"></feFlood><feComposite in2="afterOffset" operator="in"></feComposite><feMorphology operator="dilate" radius="4"></feMorphology><feComposite in2="SourceAlpha" operator="in"></feComposite></filter><path d="M282.41 215.05L236.54 215.05L236.54 348.88L236.54 384.22L247.07 389.49L259.85 363.92L253.08 348.88L262.86 320L274.89 269.19L297.44 306.78L282.41 328.58L282.41 363.92L286.92 378.96L279.4 387.23L286.92 440.61L270.38 456.4L279.4 465.43L289.17 465.43L303.46 448.13L316.99 387.23L310.98 378.96L322.26 341.37L333.53 375.95L328.27 389.49L338.8 448.13L333.53 467.68L343.31 474.45L356.09 467.68L362.86 389.49L359.1 375.95L362.86 328.58L350.83 306.78L371.88 266.18L377.89 306.78L386.92 354.9L384.66 373.7L402.71 394.75L410.98 387.23L407.97 215.05L367.37 215.05L338.8 197.01L347.07 167.68L338.8 150.39L303.46 150.39L297.44 172.19L303.46 197.01L282.41 215.05Z" id="bCZcC0NXm" fill="white" fill-opacity="1" filter="url(#shadow15283804)"></path></g></g><g><g><filter id="shadow4698823" x="286.71" y="208.08" width="70.33" height="65.82" filterUnits="userSpaceOnUse" primitiveUnits="userSpaceOnUse"><feFlood></feFlood><feComposite in2="SourceAlpha" operator="in"></feComposite><feGaussianBlur stdDeviation="2"></feGaussianBlur><feOffset dx="0" dy="0" result="afterOffset"></feOffset><feFlood flood-color="#ff0000" flood-opacity="0.75"></feFlood><feComposite in2="afterOffset" operator="in"></feComposite><feMorphology operator="dilate" radius="6"></feMorphology><feComposite in2="SourceAlpha" operator="out"></feComposite></filter><path d="M338.05 242.87L332.03 230.84L317.74 227.08L305.71 236.85L309.47 249.64L323.76 254.9L338.05 242.87Z" id="d3ebmhy2j" fill="white" fill-opacity="1" filter="url(#shadow4698823)"></path></g><use xlink:href="#aIsnqFXXS" opacity="1" fill="#ff0000" fill-opacity="1"></use><g><use xlink:href="#aIsnqFXXS" opacity="1" fill-opacity="0" stroke="#000000" stroke-width="2" stroke-opacity="0.21"></use></g></g><g><use xlink:href="#c38ybCYYGM" opacity="1" fill="#ff0000" fill-opacity="1"></use><g><use xlink:href="#c38ybCYYGM" opacity="1" fill-opacity="0" stroke="#000000" stroke-width="2" stroke-opacity="0.21"></use></g></g><g><use xlink:href="#d6wpgzFieu" opacity="1" fill="#ff0000" fill-opacity="1"></use><g><use xlink:href="#d6wpgzFieu" opacity="1" fill-opacity="0" stroke="#000000" stroke-width="2" stroke-opacity="0.21"></use></g></g></g></g></svg>